<?xml version="1.0" standalone="no"?>
<!DOCTYPE svg PUBLIC "-//W3C//DTD SVG 1.1//EN"
"http://www.w3.org/Graphics/SVG/1.1/DTD/svg11.dtd">

<svg width="508" height="382" view_box="0 0 508 382"
xmlns="http://www.w3.org/2000/svg"
xmlns:link="http://www.w3.org/1999/xlink">\n\n<desc>Généré par Mocodo 2.3.7 le Sun, 07 Aug 2022 04:37:02</desc>

<rect id="frame" x="0" y="0" width="508" height="382" fill="#ffffbf" stroke="none" stroke-width="0"/>

<!-- Association DEPENDS ON -->
<line x1="49" y1="94" x2="173" y2="94" stroke="#66c2a5" stroke-width="2"/>
<text x="90" y="111.0" fill="#d53e4f" font-family="Verdana" font-size="12">0,N</text>
<line x1="173" y1="204" x2="173" y2="94" stroke="#66c2a5" stroke-width="2"/>
<text x="146.0" y="154" fill="#d53e4f" font-family="Verdana" font-size="12">0,N</text>
<g id="association-DEPENDS ON">
	<path d="M 207 60 a 14 14 90 0 1 14 14 V 85 h -96 V 74 a 14 14 90 0 1 14 -14" fill="#abdda4" stroke="#abdda4" stroke-width="0"/>
	<path d="M 221 85.0 v 29 a 14 14 90 0 1 -14 14 H 139 a 14 14 90 0 1 -14 -14 V 85.0 H 96" fill="#e6f598" stroke="#e6f598" stroke-width="0"/>
	<rect x="125" y="60" width="96" height="68" fill="none" rx="14" stroke="#66c2a5" stroke-width="2"/>
	<line x1="125" y1="85" x2="221" y2="85" stroke="#66c2a5" stroke-width="1"/>
	<text x="132" y="77.7" fill="#000000" font-family="Verdana" font-size="12">DEPENDS ON</text>
	<text x="132" y="102.8" fill="#000000" font-family="Verdana" font-size="12">activity_id</text>
	<text x="132" y="119.8" fill="#000000" font-family="Verdana" font-size="12">tribe_id</text>
</g>

<!-- Association WAS LIVED BY -->
<line x1="173" y1="204" x2="173" y2="305" stroke="#66c2a5" stroke-width="2"/>
<text x="146.0" y="263" fill="#d53e4f" font-family="Verdana" font-size="12">0,N</text>
<line x1="49" y1="305" x2="173" y2="305" stroke="#66c2a5" stroke-width="2"/>
<text x="94" y="322.0" fill="#d53e4f" font-family="Verdana" font-size="12">0,N</text>
<g id="association-WAS LIVED BY">
	<path d="M 211 271 a 14 14 90 0 1 14 14 V 296 h -104 V 285 a 14 14 90 0 1 14 -14" fill="#abdda4" stroke="#abdda4" stroke-width="0"/>
	<path d="M 225 296.0 v 29 a 14 14 90 0 1 -14 14 H 135 a 14 14 90 0 1 -14 -14 V 296.0 H 104" fill="#e6f598" stroke="#e6f598" stroke-width="0"/>
	<rect x="121" y="271" width="104" height="68" fill="none" rx="14" stroke="#66c2a5" stroke-width="2"/>
	<line x1="121" y1="296" x2="225" y2="296" stroke="#66c2a5" stroke-width="1"/>
	<text x="128" y="288.7" fill="#000000" font-family="Verdana" font-size="12">WAS LIVED BY</text>
	<text x="128" y="313.8" fill="#000000" font-family="Verdana" font-size="12">remember_id</text>
	<text x="128" y="330.8" fill="#000000" font-family="Verdana" font-size="12">tribe_id</text>
</g>

<!-- Association BELONGS TO -->
<line x1="447" y1="94" x2="310" y2="94" stroke="#66c2a5" stroke-width="2"/>
<text x="386" y="111.0" fill="#d53e4f" font-family="Verdana" font-size="12">0,N</text>
<line x1="173" y1="204" x2="310" y2="94" stroke="#66c2a5" stroke-width="2"/>
<text x="223" y="178.884247217" fill="#d53e4f" font-family="Verdana" font-size="12">0,N</text>
<g id="association-BELONGS TO">
	<path d="M 344 60 a 14 14 90 0 1 14 14 V 85 h -96 V 74 a 14 14 90 0 1 14 -14" fill="#abdda4" stroke="#abdda4" stroke-width="0"/>
	<path d="M 358 85.0 v 29 a 14 14 90 0 1 -14 14 H 276 a 14 14 90 0 1 -14 -14 V 85.0 H 96" fill="#e6f598" stroke="#e6f598" stroke-width="0"/>
	<rect x="262" y="60" width="96" height="68" fill="none" rx="14" stroke="#66c2a5" stroke-width="2"/>
	<line x1="262" y1="85" x2="358" y2="85" stroke="#66c2a5" stroke-width="1"/>
	<text x="269" y="77.7" fill="#000000" font-family="Verdana" font-size="12">BELONGS TO</text>
	<text x="269" y="102.8" fill="#000000" font-family="Verdana" font-size="12">member_id</text>
	<text x="269" y="119.8" fill="#000000" font-family="Verdana" font-size="12">tribe_id</text>
</g>

<!-- Association WRITTEN BY -->
<line x1="173" y1="204" x2="310" y2="305" stroke="#66c2a5" stroke-width="2"/>
<text x="223" y="234.750604405" fill="#d53e4f" font-family="Verdana" font-size="12">0,N</text>
<line x1="447" y1="305" x2="310" y2="305" stroke="#66c2a5" stroke-width="2"/>
<text x="368" y="322.0" fill="#d53e4f" font-family="Verdana" font-size="12">0,N</text>
<g id="association-WRITTEN BY">
	<path d="M 349 271 a 14 14 90 0 1 14 14 V 296 h -106 V 285 a 14 14 90 0 1 14 -14" fill="#abdda4" stroke="#abdda4" stroke-width="0"/>
	<path d="M 363 296.0 v 29 a 14 14 90 0 1 -14 14 H 271 a 14 14 90 0 1 -14 -14 V 296.0 H 106" fill="#e6f598" stroke="#e6f598" stroke-width="0"/>
	<rect x="257" y="271" width="106" height="68" fill="none" rx="14" stroke="#66c2a5" stroke-width="2"/>
	<line x1="257" y1="296" x2="363" y2="296" stroke="#66c2a5" stroke-width="1"/>
	<text x="271" y="288.7" fill="#000000" font-family="Verdana" font-size="12">WRITTEN BY</text>
	<text x="264" y="313.8" fill="#000000" font-family="Verdana" font-size="12">tribe_id</text>
	<text x="264" y="330.8" fill="#000000" font-family="Verdana" font-size="12">shoppinglist_id</text>
</g>

<!-- Entity MEMBER -->
<g id="entity-MEMBER">
	<g id="frame-MEMBER">
		<rect x="413" y="52" width="68" height="25" fill="#fdae61" stroke="#fdae61" stroke-width="0"/>
		<rect x="413" y="77.0" width="68" height="59" fill="#fee08b" stroke="#fee08b" stroke-width="0"/>
		<rect x="413" y="52" width="68" height="84" fill="none" stroke="#f46d43" stroke-width="2"/>
		<line x1="413" y1="77" x2="481" y2="77" stroke="#f46d43" stroke-width="1"/>
	</g>
	<text x="420" y="69.7" fill="#000000" font-family="Verdana" font-size="12">MEMBER</text>
	<text x="418" y="94.8" fill="#000000" font-family="Verdana" font-size="12">id</text>
	<line x1="418" y1="97" x2="430" y2="97" stroke="#000000" stroke-width="1"/>
	<text x="418" y="111.8" fill="#000000" font-family="Verdana" font-size="12">firstname</text>
	<text x="418" y="128.8" fill="#000000" font-family="Verdana" font-size="12">lastname</text>
</g>

<!-- Entity TRIBE -->
<g id="entity-TRIBE">
	<g id="frame-TRIBE">
		<rect x="128" y="162" width="90" height="25" fill="#fdae61" stroke="#fdae61" stroke-width="0"/>
		<rect x="128" y="187.0" width="90" height="59" fill="#fee08b" stroke="#fee08b" stroke-width="0"/>
		<rect x="128" y="162" width="90" height="84" fill="none" stroke="#f46d43" stroke-width="2"/>
		<line x1="128" y1="187" x2="218" y2="187" stroke="#f46d43" stroke-width="1"/>
	</g>
	<text x="154" y="179.7" fill="#000000" font-family="Verdana" font-size="12">TRIBE</text>
	<text x="133" y="204.8" fill="#000000" font-family="Verdana" font-size="12">id</text>
	<line x1="133" y1="207" x2="145" y2="207" stroke="#000000" stroke-width="1"/>
	<text x="133" y="221.8" fill="#000000" font-family="Verdana" font-size="12">name</text>
	<text x="133" y="238.8" fill="#000000" font-family="Verdana" font-size="12">nb_members</text>
</g>

<!-- Entity SHOPPINGLIST -->
<g id="entity-SHOPPINGLIST">
	<g id="frame-SHOPPINGLIST">
		<rect x="395" y="271" width="104" height="25" fill="#fdae61" stroke="#fdae61" stroke-width="0"/>
		<rect x="395" y="296.0" width="104" height="43" fill="#fee08b" stroke="#fee08b" stroke-width="0"/>
		<rect x="395" y="271" width="104" height="68" fill="none" stroke="#f46d43" stroke-width="2"/>
		<line x1="395" y1="296" x2="499" y2="296" stroke="#f46d43" stroke-width="1"/>
	</g>
	<text x="400" y="288.7" fill="#000000" font-family="Verdana" font-size="12">SHOPPINGLIST</text>
	<text x="400" y="313.8" fill="#000000" font-family="Verdana" font-size="12">id</text>
	<line x1="400" y1="316" x2="412" y2="316" stroke="#000000" stroke-width="1"/>
	<text x="400" y="330.8" fill="#000000" font-family="Verdana" font-size="12">list</text>
</g>

<!-- Entity REMEMBER -->
<g id="entity-REMEMBER">
	<g id="frame-REMEMBER">
		<rect x="9" y="237" width="80" height="25" fill="#fdae61" stroke="#fdae61" stroke-width="0"/>
		<rect x="9" y="262.0" width="80" height="111" fill="#fee08b" stroke="#fee08b" stroke-width="0"/>
		<rect x="9" y="237" width="80" height="136" fill="none" stroke="#f46d43" stroke-width="2"/>
		<line x1="9" y1="262" x2="89" y2="262" stroke="#f46d43" stroke-width="1"/>
	</g>
	<text x="14" y="254.7" fill="#000000" font-family="Verdana" font-size="12">REMEMBER</text>
	<text x="14" y="279.7" fill="#000000" font-family="Verdana" font-size="12">id</text>
	<line x1="14" y1="282" x2="26" y2="282" stroke="#000000" stroke-width="1"/>
	<text x="14" y="296.7" fill="#000000" font-family="Verdana" font-size="12">date</text>
	<text x="14" y="313.8" fill="#000000" font-family="Verdana" font-size="12">location</text>
	<text x="14" y="330.8" fill="#000000" font-family="Verdana" font-size="12">members</text>
	<text x="14" y="347.8" fill="#000000" font-family="Verdana" font-size="12">story</text>
	<text x="14" y="364.8" fill="#000000" font-family="Verdana" font-size="12">picture</text>
</g>

<!-- Entity ACTIVITY -->
<g id="entity-ACTIVITY">
	<g id="frame-ACTIVITY">
		<rect x="13" y="9" width="72" height="25" fill="#fdae61" stroke="#fdae61" stroke-width="0"/>
		<rect x="13" y="34.0" width="72" height="145" fill="#fee08b" stroke="#fee08b" stroke-width="0"/>
		<rect x="13" y="9" width="72" height="170" fill="none" stroke="#f46d43" stroke-width="2"/>
		<line x1="13" y1="34" x2="85" y2="34" stroke="#f46d43" stroke-width="1"/>
	</g>
	<text x="20" y="26.7" fill="#000000" font-family="Verdana" font-size="12">ACTIVITY</text>
	<text x="18" y="51.7" fill="#000000" font-family="Verdana" font-size="12">id</text>
	<line x1="18" y1="54" x2="30" y2="54" stroke="#000000" stroke-width="1"/>
	<text x="18" y="68.7" fill="#000000" font-family="Verdana" font-size="12">name</text>
	<text x="18" y="85.7" fill="#000000" font-family="Verdana" font-size="12">date</text>
	<text x="18" y="102.8" fill="#000000" font-family="Verdana" font-size="12">location</text>
	<text x="18" y="119.8" fill="#000000" font-family="Verdana" font-size="12">duration</text>
	<text x="18" y="136.8" fill="#000000" font-family="Verdana" font-size="12">hourly</text>
	<text x="18" y="153.8" fill="#000000" font-family="Verdana" font-size="12">nb-person</text>
	<text x="18" y="170.8" fill="#000000" font-family="Verdana" font-size="12">to_check</text>
</g>
</svg>